<svg width="203" height="101" viewBox="0 0 203 101" fill="none" xmlns="http://www.w3.org/2000/svg">
<g clip-path="url(#clip0_102_8032)">
<rect width="203" height="101" fill="white"/>
<path d="M59.8836 80.398C57.8875 80.398 55.8375 79.7776 53.7336 78.5368C51.6836 77.2961 49.5796 75.273 47.4217 72.4678C45.7493 70.2559 44.5355 67.7204 43.7803 64.8612C43.0789 62.002 42.7283 59.1697 42.7283 56.3645C42.7283 55.0158 42.8092 53.6941 42.9711 52.3993C43.1868 50.9428 43.5914 49.2974 44.1849 47.4632C44.7783 45.575 45.3987 44.0375 46.0461 42.8507C46.2618 42.4191 46.5586 41.9875 46.9362 41.5559C47.3678 41.1243 47.6375 40.9086 47.7454 40.9086C47.7993 40.9086 47.8263 40.9625 47.8263 41.0704C47.8263 41.2862 47.5566 41.9336 47.0171 43.0125C46.2079 44.6309 45.6145 46.3572 45.2368 48.1914C44.8592 49.9717 44.6704 51.8059 44.6704 53.6941C44.6704 57.1467 45.2099 60.5454 46.2888 63.8901C47.4217 67.2888 48.9053 70.202 50.7395 72.6296C52.4658 74.9493 54.1382 76.6217 55.7566 77.6467C57.4289 78.6717 58.9934 79.1842 60.45 79.1842C62.6079 79.1842 64.523 78.348 66.1954 76.6757C67.9217 75.0033 69.3513 72.9533 70.4842 70.5257C71.2934 68.8533 71.9678 66.6414 72.5072 63.8901C73.0467 61.1928 73.4513 58.1717 73.7211 54.827C74.0447 51.4283 74.2066 47.9217 74.2066 44.3072C74.2066 40.6388 74.0447 37.0243 73.7211 33.4638C73.3974 29.9033 72.8579 26.5586 72.1026 23.4296C71.4013 20.3007 70.5112 17.6033 69.4322 15.3375C68.3533 13.0717 67.0316 11.4533 65.4671 10.4822C65.0355 10.2125 64.6309 10.0776 64.2533 10.0776C63.8217 10.0776 63.3901 10.2125 62.9586 10.4822C62.5809 10.752 62.2303 11.1026 61.9066 11.5342C61.2053 12.5053 60.6928 13.8539 60.3691 15.5803C60.0454 17.2526 59.8836 19.0599 59.8836 21.002C59.8836 23.2678 60.0724 25.5605 60.45 27.8803C60.8276 30.1461 61.3401 32.1691 61.9875 33.9493C62.6888 35.6757 63.4711 36.8895 64.3342 37.5908C64.8197 38.0224 65.2783 38.2382 65.7099 38.2382C66.0875 38.2382 66.3842 38.1572 66.6 37.9954C66.8158 37.7796 67.0316 37.6717 67.2474 37.6717C67.625 37.6717 67.6789 37.8336 67.4092 38.1572C67.1395 38.427 66.7349 38.6967 66.1954 38.9664C65.6559 39.2362 65.0625 39.3441 64.4151 39.2901C62.9586 39.1283 61.7447 38.3191 60.7737 36.8625C59.8026 35.4059 59.0743 33.5717 58.5888 31.3599C58.1033 29.0941 57.8605 26.7743 57.8605 24.4007C57.8605 21.8651 58.1033 19.4375 58.5888 17.1178C59.1283 14.798 59.9105 12.9099 60.9355 11.4533C62.0145 9.99671 63.3092 9.26842 64.8197 9.26842C65.575 9.26842 66.3033 9.43026 67.0046 9.75394C69.0546 10.6171 70.727 12.2895 72.0217 14.7711C73.3704 17.1987 74.3954 20.1118 75.0967 23.5105C75.852 26.8553 76.3645 30.3618 76.6342 34.0303C76.9579 37.6987 77.1197 41.2322 77.1197 44.6309C77.1197 47.3822 77.0388 49.8908 76.877 52.1566C76.7691 54.4224 76.6342 56.2566 76.4724 57.6592C76.1487 60.6263 75.5013 63.4586 74.5303 66.1559C73.5592 68.9072 72.3454 71.3349 70.8888 73.4388C69.4322 75.5967 67.7599 77.2961 65.8717 78.5368C63.9836 79.7776 61.9875 80.398 59.8836 80.398ZM98.4007 64.052C97.6994 64.052 97.079 63.6204 96.5395 62.7572C96.0001 61.8401 95.7303 60.1138 95.7303 57.5783C95.7303 55.5822 95.8922 53.3974 96.2158 51.0237C96.5395 48.5961 96.8902 46.1954 97.2678 43.8217C97.6994 41.448 98.077 39.3441 98.4007 37.5099C98.7244 35.6217 98.8862 34.2461 98.8862 33.3829C98.8862 31.8724 98.4277 31.1171 97.5106 31.1171C96.6474 31.1171 95.7573 31.5487 94.8402 32.4118C93.977 33.275 93.1408 34.327 92.3316 35.5678C91.5764 36.8086 90.902 38.0224 90.3086 39.2092C89.7691 40.3421 89.4185 41.1783 89.2566 41.7178C88.5014 43.8217 87.9619 45.9257 87.6382 48.0296C87.3145 50.0796 87.1527 52.2105 87.1527 54.4224C87.1527 55.3395 87.1797 56.2836 87.2336 57.2546C87.3415 58.2257 87.4224 59.2237 87.4764 60.2487C87.5843 60.7882 87.4224 61.4625 86.9908 62.2717C86.6132 63.027 86.1547 63.4046 85.6152 63.4046C85.2376 63.4046 84.9139 63.1618 84.6441 62.6763C84.3744 62.1908 84.1856 61.7592 84.0777 61.3816C83.8619 60.7342 83.7001 60.0599 83.5922 59.3586C83.4843 58.6033 83.3764 57.9559 83.2685 57.4164C82.8908 55.2046 82.5402 52.9658 82.2165 50.7C81.8928 48.3803 81.4343 46.1414 80.8408 43.9836C80.679 43.3901 80.4632 42.7697 80.1935 42.1224C79.9777 41.4211 79.627 40.8546 79.1415 40.423C79.0336 40.3151 78.8718 40.2072 78.656 40.0993C78.4402 39.9375 78.3323 39.8026 78.3323 39.6947C78.3323 39.4789 78.629 39.3711 79.2224 39.3711C79.8698 39.3711 80.5172 39.6947 81.1645 40.3421C81.8119 40.9895 82.4053 41.8526 82.9448 42.9316C83.5922 44.2803 84.1316 45.7099 84.5632 47.2204C85.0487 48.7309 85.4264 49.9447 85.6961 50.8618C86.0198 48.9197 86.3704 47.1934 86.7481 45.6829C87.1257 44.3882 87.6382 42.8507 88.2856 41.0704C88.9329 39.2362 89.7422 37.4559 90.7132 35.7296C91.6843 33.9493 92.8441 32.4928 94.1928 31.3599C95.5415 30.173 97.106 29.5796 98.8862 29.5796C101.476 29.5796 102.77 31.0901 102.77 34.1112C102.77 35.6757 102.501 37.402 101.961 39.2901C101.422 41.1243 100.828 42.8237 100.181 44.3882C99.5876 45.9526 99.1829 47.0316 98.9672 47.625C98.6974 48.3803 98.4007 49.4053 98.077 50.7C97.8073 51.9947 97.5645 53.3434 97.3487 54.7461C97.1869 56.1487 97.106 57.4434 97.106 58.6303C97.106 59.6553 97.2139 60.5184 97.4297 61.2197C97.6994 61.8671 98.104 62.1908 98.6435 62.1908C99.1829 62.1908 99.6685 61.948 100.1 61.4625C100.532 60.923 100.882 60.4375 101.152 60.0059C101.476 59.5743 101.638 59.4934 101.638 59.7632C101.745 60.5724 101.449 61.4895 100.747 62.5145C100.1 63.5395 99.3178 64.052 98.4007 64.052ZM107.07 66.8033C105.775 66.8033 104.804 66.2368 104.157 65.1039C103.509 64.025 103.186 62.6493 103.186 60.977C103.186 59.7901 103.429 58.3066 103.914 56.5263C104.4 54.7461 105.074 52.8849 105.937 50.9428C106.8 49.0007 107.771 47.1934 108.85 45.5211C109.929 43.7947 111.035 42.4191 112.168 41.3941C113.355 40.3151 114.515 39.7757 115.648 39.7757C116.565 39.7757 117.212 40.1263 117.59 40.8276C118.021 41.475 118.237 42.1763 118.237 42.9316C118.237 43.5789 118.102 44.1724 117.833 44.7118C117.617 45.1974 117.293 45.4401 116.861 45.4401C116.43 45.4401 116.106 45.2513 115.89 44.8737C115.729 44.4421 115.567 44.0105 115.405 43.5789C115.297 43.1474 115 42.9316 114.515 42.9316C113.544 42.9316 112.573 43.552 111.602 44.7928C110.631 46.0336 109.74 47.598 108.931 49.4862C108.122 51.3743 107.475 53.3434 106.989 55.3934C106.504 57.3895 106.261 59.1697 106.261 60.7342C106.261 61.8671 106.396 62.7572 106.665 63.4046C106.989 64.1059 107.502 64.4566 108.203 64.4566C109.12 64.4566 110.037 63.8901 110.954 62.7572C111.925 61.5704 112.869 60.0599 113.786 58.2257C114.704 56.3375 115.54 54.3684 116.295 52.3184C117.104 50.2684 117.779 48.3533 118.318 46.573C118.911 44.7388 119.37 43.2822 119.694 42.2033C120.125 38.427 120.638 34.6237 121.231 30.7934C121.879 26.9632 122.823 23.2408 124.063 19.6263C124.225 19.0329 124.468 18.5204 124.792 18.0888C125.169 17.6572 125.547 17.4414 125.925 17.4414C126.356 17.4414 126.707 17.7382 126.977 18.3316C127.3 18.925 127.462 19.5993 127.462 20.3546C127.462 20.948 127.354 21.5684 127.138 22.2158C126.923 22.8632 126.653 23.7263 126.329 24.8053C125.952 26.1 125.466 27.8263 124.873 29.9842C124.333 32.0882 123.767 34.4888 123.173 37.1862C122.58 39.8296 122.067 42.6618 121.636 45.6829C121.258 48.65 121.069 51.6171 121.069 54.5842C121.069 56.85 121.231 58.4414 121.555 59.3586C121.879 60.2757 122.31 60.7342 122.85 60.7342C123.443 60.7342 124.09 60.3566 124.792 59.6013C125.547 58.8461 126.275 57.9289 126.977 56.85C127.732 55.7711 128.406 54.6921 129 53.6132C129.593 52.4803 130.052 51.5901 130.375 50.9428C130.969 49.7559 131.427 49.1625 131.751 49.1625C131.967 49.1625 132.075 49.4053 132.075 49.8908C132.075 50.2684 131.994 50.673 131.832 51.1046C131.508 51.8059 131.292 52.3454 131.184 52.723C131.077 53.0467 130.942 53.3704 130.78 53.6941C130.672 54.0178 130.402 54.5303 129.971 55.2316C129.593 55.8789 129 56.7691 128.19 57.902C127.381 58.9809 126.464 59.9789 125.439 60.8961C124.414 61.7592 123.389 62.1908 122.364 62.1908C121.339 62.1908 120.557 61.7592 120.017 60.8961C119.532 60.0329 119.208 58.927 119.046 57.5783C118.938 56.1757 118.884 54.7461 118.884 53.2895C118.884 51.5092 118.965 49.6211 119.127 47.625C118.75 48.9197 118.237 50.4572 117.59 52.2375C116.942 53.9638 116.214 55.7171 115.405 57.4974C114.596 59.2776 113.733 60.8961 112.815 62.3526C112.06 63.5395 111.224 64.5645 110.307 65.4276C109.39 66.3447 108.311 66.8033 107.07 66.8033ZM130.198 62.3526C129.334 62.3526 128.606 61.8941 128.013 60.977C127.581 60.2217 127.365 59.3316 127.365 58.3066C127.365 56.85 127.689 55.2046 128.336 53.3704C128.984 51.5362 129.847 49.7559 130.926 48.0296C132.059 46.3033 133.3 44.8467 134.648 43.6599C136.051 42.4191 137.481 41.6908 138.937 41.475C139.477 41.4211 140.124 41.5559 140.879 41.8796C141.634 42.2033 142.255 42.6079 142.74 43.0934C142.848 42.5539 142.929 42.0414 142.983 41.5559C143.037 41.0164 143.064 40.5039 143.064 40.0184C143.064 38.5079 142.821 37.1592 142.336 35.9724C141.85 34.7855 140.987 34.0033 139.746 33.6257C139.261 33.4638 138.721 33.3829 138.128 33.3829C137.804 33.3829 137.454 33.4368 137.076 33.5447C136.698 33.5987 136.294 33.7605 135.862 34.0303C135.431 34.2461 134.999 34.5967 134.567 35.0822C134.136 35.5138 133.839 35.9184 133.677 36.2961C133.569 36.5118 133.3 36.9974 132.868 37.7526C132.436 38.4539 132.086 38.7776 131.816 38.7237C131.6 38.6697 131.492 38.4809 131.492 38.1572C131.492 37.9954 131.546 37.7526 131.654 37.4289C131.978 36.4039 132.598 35.5408 133.515 34.8395C134.432 34.0842 135.431 33.4908 136.509 33.0592C137.588 32.5737 138.479 32.3039 139.18 32.25C139.342 32.25 139.504 32.25 139.665 32.25C139.827 32.1961 139.962 32.1691 140.07 32.1691C140.933 32.1691 141.715 32.3039 142.417 32.5737C143.172 32.7895 143.765 33.0862 144.197 33.4638C144.898 34.0033 145.465 34.7046 145.896 35.5678C146.328 36.377 146.544 37.402 146.544 38.6428C146.544 39.0204 146.517 39.425 146.463 39.8566C146.409 40.2882 146.328 40.7197 146.22 41.1513C146.058 42.0145 145.842 43.1204 145.573 44.4691C145.357 45.7638 145.114 47.1125 144.844 48.5151C144.629 49.9178 144.44 51.2125 144.278 52.3993C144.17 53.5322 144.116 54.3414 144.116 54.827C144.116 55.3664 144.278 55.9868 144.602 56.6882C144.979 57.3355 145.465 57.6592 146.058 57.6592C146.382 57.6592 146.732 57.4974 147.11 57.1737C147.542 56.85 147.973 56.3105 148.405 55.5553C148.675 55.1237 148.917 54.9079 149.133 54.9079C149.403 54.9079 149.538 55.0697 149.538 55.3934C149.538 55.825 149.322 56.3375 148.89 56.9309C147.865 58.3875 146.571 59.1158 145.006 59.1158C143.711 59.1158 142.794 58.5763 142.255 57.4974C141.338 55.7171 140.879 54.1257 140.879 52.723C140.879 51.2664 140.852 50.2684 140.798 49.7289C140.529 50.3763 140.016 51.4013 139.261 52.8039C138.506 54.1526 137.615 55.5822 136.59 57.0928C135.565 58.5493 134.486 59.7901 133.354 60.8151C132.221 61.8401 131.169 62.3526 130.198 62.3526ZM131.492 59.925C132.032 59.925 132.652 59.6553 133.354 59.1158C134.109 58.5763 134.891 57.7401 135.7 56.6072C136.779 55.0428 137.777 53.2895 138.694 51.3474C139.611 49.4053 140.448 47.5171 141.203 45.6829C140.556 44.1184 139.746 43.3362 138.775 43.3362C137.912 43.3362 136.995 43.7947 136.024 44.7118C135.053 45.6289 134.136 46.6809 133.273 47.8678C132.194 49.4862 131.331 51.1046 130.683 52.723C130.09 54.3414 129.793 55.7171 129.793 56.85C129.793 58.9 130.359 59.925 131.492 59.925ZM157.876 77.1612C156.636 77.1612 155.692 76.6487 155.044 75.6237C154.451 74.5987 154.154 73.4118 154.154 72.0632C154.154 70.4447 154.451 68.5836 155.044 66.4796C155.692 64.4296 156.474 62.3257 157.391 60.1678C158.308 57.9559 159.252 55.825 160.223 53.775C161.248 51.725 162.138 49.8908 162.894 48.2724C163.703 46.6539 164.242 45.4132 164.512 44.55C164.836 43.5789 164.997 42.8507 164.997 42.3651C164.997 41.8257 164.809 41.5559 164.431 41.5559C163.999 41.5559 163.352 41.9066 162.489 42.6079C161.68 43.2553 160.87 43.9836 160.061 44.7928C159.306 45.602 158.767 46.1954 158.443 46.573C156.717 48.5151 155.152 50.673 153.749 53.0467C152.401 55.4204 151.565 57.4434 151.241 59.1158C151.187 59.3855 151.079 59.8711 150.917 60.5724C150.809 61.2737 150.567 61.5974 150.189 61.5434C149.649 61.4355 149.272 61.1118 149.056 60.5724C148.894 59.9789 148.786 59.4395 148.732 58.9539C148.732 58.6842 148.705 58.4145 148.651 58.1447C148.651 57.8211 148.651 57.4974 148.651 57.1737C148.651 54.5303 148.948 51.5362 149.542 48.1914C150.135 44.8467 150.89 41.4211 151.807 37.9145C152.778 34.4079 153.803 31.1441 154.882 28.123C155.961 25.102 156.986 22.5934 157.957 20.5974C158.443 19.6263 158.982 18.7092 159.576 17.8461C160.169 16.9289 160.763 16.4704 161.356 16.4704C161.734 16.4704 162.057 16.6592 162.327 17.0368C162.651 17.4145 162.813 17.7382 162.813 18.0079C162.813 18.2237 162.435 19.0868 161.68 20.5974C160.978 22.0539 160.061 23.9961 158.928 26.4237C157.795 28.7974 156.636 31.5217 155.449 34.5967C154.316 37.6717 153.291 40.9625 152.374 44.4691C151.457 47.9757 150.836 51.5362 150.513 55.1507C150.513 55.2046 150.486 55.4743 150.432 55.9599C150.378 56.4454 150.324 56.9309 150.27 57.4164C150.27 57.902 150.27 58.1447 150.27 58.1447V58.0638H150.351C150.459 57.4164 150.647 56.7961 150.917 56.2026C151.241 55.6092 151.565 55.0428 151.888 54.5033C153.507 51.2664 155.584 48.1645 158.119 45.1974C159.36 43.7947 160.655 42.5809 162.003 41.5559C163.352 40.477 164.755 39.9375 166.211 39.9375C166.805 39.9375 167.317 40.0993 167.749 40.423C168.18 40.7467 168.396 41.3671 168.396 42.2842C168.396 43.4711 167.992 44.8737 167.182 46.4921C166.427 48.0566 165.483 49.702 164.35 51.4283C163.271 53.1007 162.273 54.6921 161.356 56.2026C160.115 58.3066 158.982 60.5454 157.957 62.9191C156.986 65.2388 156.501 67.6664 156.501 70.202C156.501 70.9572 156.555 71.7664 156.663 72.6296C156.824 73.4928 157.067 74.2211 157.391 74.8145C157.769 75.4618 158.281 75.7855 158.928 75.7855C159.36 75.7855 159.765 75.6507 160.142 75.3809C160.574 75.1651 160.924 74.9493 161.194 74.7336C161.68 74.248 162.003 74.0053 162.165 74.0053C162.327 74.0053 162.408 74.0862 162.408 74.248C162.408 74.5717 162.273 74.8684 162.003 75.1382C161.734 75.4618 161.464 75.7046 161.194 75.8664C160.817 76.1901 160.304 76.4868 159.657 76.7566C159.063 77.0263 158.47 77.1612 157.876 77.1612Z" fill="black"/>
</g>
<defs>
<clipPath id="clip0_102_8032">
<rect width="203" height="101" fill="white"/>
</clipPath>
</defs>
</svg>
