<svg width="64" height="31" viewBox="0 0 64 31" fill="none" xmlns="http://www.w3.org/2000/svg">
<g filter="url(#filter0_d_112_8393)">
<path d="M17.0092 7.00308C16.8862 12.5662 16.8185 16.9108 16.8062 20.0369C16.6215 20.2338 16.4554 20.3323 16.3077 20.3323C16.1723 20.3323 16.0554 20.3015 15.9569 20.24C15.6738 20.0554 15.5323 19.7108 15.5323 19.2062C15.5569 13.2862 15.6 9.82154 15.6615 8.81231C15.7231 7.80308 15.8154 7.21846 15.9385 7.05846C16.0615 6.89846 16.2092 6.81846 16.3815 6.81846C16.5538 6.81846 16.7631 6.88 17.0092 7.00308ZM27.0399 19.4831C26.8184 19.7169 26.5661 19.8338 26.283 19.8338C25.7538 19.8338 25.3599 19.5508 25.1014 18.9846C24.843 18.4185 24.6891 17.7292 24.6399 16.9169C24.603 16.1046 24.5784 15.2923 24.5661 14.48C24.5538 13.6677 24.4861 12.9785 24.363 12.4123C24.2522 11.8462 24.0368 11.5631 23.7168 11.5631C23.2861 11.5631 22.9168 11.9508 22.6091 12.7262C22.3138 13.5015 22.1045 14.3631 21.9814 15.3108C21.6368 17.9569 21.3045 19.44 20.9845 19.76C20.763 19.8708 20.5722 19.9262 20.4122 19.9262C20.2522 19.9262 20.1168 19.9077 20.0061 19.8708C19.7476 18.7385 19.5814 16.7877 19.5076 14.0185C19.483 12.64 19.4584 11.7477 19.4338 11.3415C19.6922 11.1692 19.9138 11.0831 20.0984 11.0831C20.283 11.0831 20.4307 11.1015 20.5414 11.1385C20.603 11.6677 20.6338 12.7508 20.6338 14.3877C20.6461 16.0246 20.6584 16.9662 20.6707 17.2123C20.7322 16.9538 20.8061 16.5354 20.8922 15.9569C20.9907 15.3785 21.0768 14.9046 21.1507 14.5354C21.2245 14.1538 21.3414 13.7108 21.5014 13.2062C21.6614 12.7015 21.8399 12.3015 22.0368 12.0062C22.2338 11.6985 22.5045 11.44 22.8491 11.2308C23.1938 11.0092 23.5814 10.8985 24.0122 10.8985C24.5907 10.8985 25.0091 11.1631 25.2676 11.6923C25.5384 12.2092 25.6861 12.8554 25.7107 13.6308C25.7353 14.4062 25.7476 15.1938 25.7476 15.9938C25.7599 16.7938 25.8584 17.5262 26.043 18.1908C26.2399 18.8554 26.5722 19.2862 27.0399 19.4831ZM35.1738 5.21231C34.7061 9.44615 34.4723 12.4677 34.4723 14.2769C34.4723 16.0738 34.6384 17.8708 34.9707 19.6677C34.7246 19.9138 34.5092 20.0369 34.3246 20.0369C34.14 20.0369 33.9861 20.0123 33.863 19.9631C33.6046 19.0523 33.4507 18.0615 33.4015 16.9908C33.1061 17.4585 32.8846 17.7908 32.7369 17.9877C32.6015 18.1846 32.3615 18.4738 32.0169 18.8554C31.3892 19.5938 30.6446 19.9631 29.783 19.9631C29.1307 19.9631 28.6569 19.6615 28.3615 19.0585C28.0784 18.4431 27.9369 17.6615 27.9369 16.7138C27.9369 15.7538 28.0415 14.8431 28.2507 13.9815C28.4723 13.1077 28.8476 12.3569 29.3769 11.7292C29.9061 11.0892 30.5584 10.7692 31.3338 10.7692C31.8015 10.7692 32.2323 10.8677 32.6261 11.0646C33.02 11.2615 33.2907 11.5262 33.4384 11.8585C33.463 11.5262 33.4876 11.0154 33.5123 10.3262C33.5369 9.63692 33.5615 9.02769 33.5861 8.49846C33.623 7.95692 33.6784 7.40923 33.7523 6.85538C33.8876 5.67385 34.1892 5.08308 34.6569 5.08308C34.8169 5.08308 34.9892 5.12615 35.1738 5.21231ZM33.0138 12.5231C32.8661 12.2523 32.663 12.0554 32.4046 11.9323C32.1461 11.7969 31.8015 11.7292 31.3707 11.7292C30.9523 11.7292 30.5584 11.9692 30.1892 12.4492C29.463 13.3969 29.1 14.7692 29.1 16.5662C29.1 17.1446 29.1923 17.7231 29.3769 18.3015C29.5615 18.8677 29.8323 19.1508 30.1892 19.1508C30.7061 19.1508 31.2107 18.8123 31.703 18.1354C32.1953 17.4585 32.5769 16.6831 32.8476 15.8092C33.1184 14.9231 33.2538 14.1292 33.2538 13.4277C33.2538 13.0954 33.1738 12.7938 33.0138 12.5231ZM42.7921 14.6831L42.6998 16.8062C42.6998 17.8769 42.8228 18.5969 43.069 18.9662C43.2167 19.2123 43.4198 19.3354 43.6782 19.3354C43.7521 19.3354 43.8567 19.3169 43.9921 19.28C44.2505 19.2062 44.4659 19.2431 44.6382 19.3908C44.5521 19.8215 44.1213 20.0369 43.3459 20.0369C42.8167 20.0369 42.4659 19.8154 42.2936 19.3723C42.1582 19.04 42.0598 18.6277 41.9982 18.1354C41.9367 17.6308 41.8875 17.2862 41.8505 17.1015C41.0505 18.6277 40.2751 19.5569 39.5244 19.8892C39.1428 20.0615 38.6998 20.1477 38.1951 20.1477C37.6905 20.1477 37.2967 19.9077 37.0136 19.4277C36.7428 18.9354 36.6075 18.2215 36.6075 17.2862C36.6075 16.3508 36.7613 15.3723 37.069 14.3508C37.3767 13.3169 37.8259 12.4492 38.4167 11.7477C39.0075 11.0338 39.6536 10.6769 40.3551 10.6769C41.3644 10.6769 42.0351 11.0954 42.3675 11.9323C42.6505 12.6462 42.7921 13.5631 42.7921 14.6831ZM38.269 14.0923C38.0967 14.7569 37.9675 15.3908 37.8813 15.9938C37.7951 16.5846 37.7521 17.1138 37.7521 17.5815C37.7521 18.0369 37.8444 18.4308 38.029 18.7631C38.2259 19.0954 38.4782 19.2615 38.7859 19.2615C39.4505 19.2615 40.0905 18.6338 40.7059 17.3785C41.3213 16.1231 41.629 14.9538 41.629 13.8708C41.629 13.1692 41.4444 12.5908 41.0751 12.1354C40.829 11.84 40.5028 11.6923 40.0967 11.6923C39.7028 11.6923 39.3398 11.9262 39.0075 12.3938C38.6875 12.8492 38.4413 13.4154 38.269 14.0923ZM45.3623 16.1785L45.5284 7.90769C45.5284 7.26769 45.4915 6.83077 45.4176 6.59692C45.6392 6.4 45.9776 6.30154 46.433 6.30154C46.6176 7.61846 46.71 9.31077 46.71 11.3785C46.71 11.9938 46.6546 13.4215 46.5438 15.6615C47.1223 12.5477 48.1561 10.9908 49.6453 10.9908C50.1746 10.9908 50.5807 11.2738 50.8638 11.84C51.1592 12.3938 51.3438 13.0708 51.4176 13.8708C51.4915 14.6708 51.553 15.4708 51.6023 16.2708C51.7253 18.1908 52.07 19.1508 52.6361 19.1508C52.6484 19.1508 52.7653 19.1138 52.9869 19.04C53.4792 18.8923 53.7561 18.8554 53.8176 18.9292C53.8176 19.0646 53.6269 19.2369 53.2453 19.4462C52.8638 19.6431 52.513 19.7415 52.193 19.7415C51.6515 19.7415 51.233 19.4646 50.9376 18.9108C50.6546 18.3446 50.4761 17.6615 50.4023 16.8615C50.3407 16.0615 50.2915 15.2677 50.2546 14.48C50.23 13.68 50.15 13.0031 50.0146 12.4492C49.8792 11.8831 49.6515 11.6 49.3315 11.6C48.9376 11.6 48.5746 12.0308 48.2423 12.8923C47.9223 13.7415 47.67 14.6831 47.4853 15.7169C47.3007 16.7508 47.073 17.6985 46.8023 18.56C46.5438 19.4092 46.2792 19.8338 46.0084 19.8338C45.5776 19.8338 45.3623 18.6154 45.3623 16.1785Z" fill="white"/>
</g>
<defs>
<filter id="filter0_d_112_8393" x="11.5322" y="5.08301" width="46.2852" height="23.2493" filterUnits="userSpaceOnUse" color-interpolation-filters="sRGB">
<feFlood flood-opacity="0" result="BackgroundImageFix"/>
<feColorMatrix in="SourceAlpha" type="matrix" values="0 0 0 0 0 0 0 0 0 0 0 0 0 0 0 0 0 0 127 0" result="hardAlpha"/>
<feOffset dy="4"/>
<feGaussianBlur stdDeviation="2"/>
<feComposite in2="hardAlpha" operator="out"/>
<feColorMatrix type="matrix" values="0 0 0 0 0 0 0 0 0 0 0 0 0 0 0 0 0 0 0.25 0"/>
<feBlend mode="normal" in2="BackgroundImageFix" result="effect1_dropShadow_112_8393"/>
<feBlend mode="normal" in="SourceGraphic" in2="effect1_dropShadow_112_8393" result="shape"/>
</filter>
</defs>
</svg>
