<svg width="231" height="100" viewBox="0 0 231 100" fill="none" xmlns="http://www.w3.org/2000/svg">
<rect width="231" height="100" fill="#00E0FF"/>
<path d="M6.77091 23.8843C8.51831 24.0899 9.98303 24.2441 11.1651 24.3469C12.3986 24.3982 13.4007 24.4753 14.1716 24.5781C15.0967 24.6809 15.8163 24.7323 16.3302 24.7323C16.8955 24.7837 17.7435 24.758 18.8742 24.6552C19.8507 24.5524 21.1612 24.4239 22.8058 24.2698C24.5018 24.1156 26.6604 23.8843 29.2815 23.5759C28.0994 24.6038 27.1486 25.606 26.4291 26.5825C25.761 27.5076 25.2471 28.3299 24.8873 29.0494C24.4247 29.9231 24.1421 30.7454 24.0393 31.5163C23.8337 32.7498 23.6538 34.4458 23.4997 36.6043C23.3969 38.7115 23.2941 41.0242 23.1913 43.5425C23.0885 46.0608 23.0371 48.6562 23.0371 51.3287C23.0371 54.0012 23.0628 56.5452 23.1142 58.9607C23.217 61.3248 23.3712 63.432 23.5767 65.2822C23.8337 67.1324 24.1421 68.4686 24.5018 69.2909C25.0158 70.216 25.5554 71.1411 26.1207 72.0662C26.6347 72.8371 27.2514 73.6337 27.9709 74.456C28.6904 75.2783 29.5128 75.9464 30.4378 76.4604C27.4056 76.3062 24.9901 76.2291 23.1913 76.2291H20.416C19.5937 76.2291 18.5401 76.2805 17.2553 76.3833C16.176 76.4861 14.8141 76.5888 13.1695 76.6916C11.5249 76.7944 9.54619 76.9486 7.23346 77.1542C8.41552 75.8693 9.34061 74.6359 10.0087 73.4538C10.6769 72.2718 11.2165 71.2439 11.6276 70.3702C12.0902 69.3423 12.3986 68.3658 12.5527 67.4407C12.7583 66.1045 12.9125 64.4599 13.0153 62.5069C13.1695 60.5025 13.2723 58.3697 13.3236 56.1083C13.375 53.7956 13.375 51.4572 13.3236 49.0931C13.3236 46.6775 13.2723 44.3648 13.1695 42.1549C13.0667 39.9449 12.9125 37.9406 12.7069 36.1418C12.5527 34.343 12.3472 32.904 12.0902 31.8247C11.936 31.1566 11.6276 30.4113 11.1651 29.589C10.7539 28.8695 10.1886 28.0472 9.46909 27.1221C8.80097 26.1456 7.90158 25.0664 6.77091 23.8843ZM30.4378 22.3425C32.7506 22.7536 34.6522 23.0363 36.1426 23.1905C37.633 23.3447 38.8408 23.4732 39.7659 23.5759C40.8451 23.6787 41.6931 23.7044 42.3099 23.653H44.6226C45.4449 23.653 46.4728 23.653 47.7062 23.653C48.9911 23.6016 50.5843 23.5759 52.4859 23.5759C53.5651 26.0942 54.5416 28.407 55.4153 30.5141C56.3404 32.6213 57.1113 34.4201 57.7281 35.9105C58.4476 37.7093 59.1157 39.3282 59.7324 40.7672C60.4519 42.566 61.2228 44.5447 62.0452 46.7032C62.8675 48.8618 63.6127 50.8919 64.2808 52.7934C65.0003 54.695 65.5913 56.2625 66.0539 57.496C66.5164 58.7294 66.7477 59.2948 66.7477 59.192C66.7477 59.1406 66.7734 58.6266 66.8248 57.6502C66.8762 56.6223 66.9276 55.3631 66.979 53.8727C67.0304 52.3309 67.0818 50.6606 67.1332 48.8618C67.2359 47.0116 67.2873 45.2385 67.2873 43.5425C67.3387 41.7951 67.3644 40.2019 67.3644 38.7629C67.3644 37.3238 67.313 36.2446 67.2102 35.525C67.0561 34.6513 66.7477 33.6492 66.2852 32.5185C65.874 31.542 65.3087 30.3856 64.5892 29.0494C63.8696 27.6618 62.8675 26.0942 61.5826 24.3469C63.6898 24.3982 65.4115 24.4239 66.7477 24.4239C68.0839 24.4239 69.1632 24.4239 69.9855 24.4239C70.9106 24.4239 71.6301 24.3982 72.1441 24.3469C72.8122 24.3469 73.6345 24.2955 74.611 24.1927C75.4847 24.0899 76.564 24.0128 77.8488 23.9614C79.185 23.8586 80.8297 23.7301 82.7826 23.5759C81.652 24.6038 80.7526 25.5803 80.0844 26.5054C79.4163 27.4305 78.8767 28.2528 78.4655 28.9723C78.003 29.7946 77.6946 30.5655 77.5404 31.285C77.3349 32.2101 77.155 33.7263 77.0008 35.8334C76.898 37.8892 76.7695 40.2019 76.6153 42.7716C76.5126 45.3413 76.4098 48.0138 76.307 50.7891C76.2042 53.5643 76.1014 56.1083 75.9986 58.4211C75.9986 60.1685 75.9472 62.0443 75.8444 64.0487C75.7417 65.7447 75.6389 67.672 75.5361 69.8305C75.4333 71.9377 75.3048 74.0705 75.1506 76.2291L68.2895 76.3833C66.2852 72.8371 64.5892 69.8048 63.2015 67.2865C61.8653 64.7168 60.7603 62.6097 59.8866 60.9651C58.9101 59.0635 58.0878 57.4703 57.4197 56.1854C56.8544 54.952 56.1091 53.5386 55.1841 51.9454C54.4131 50.6092 53.4367 48.9646 52.2546 47.0116C51.1239 45.0586 49.762 42.823 48.1688 40.3047C48.0146 43.8509 47.9375 46.8831 47.9375 49.4014C47.9889 51.8683 48.066 53.9241 48.1688 55.5687C48.323 57.4703 48.5028 59.0635 48.7084 60.3483C48.9654 61.5818 49.3251 62.9694 49.7877 64.5113C50.1988 65.8475 50.6871 67.415 51.2524 69.2138C51.8691 71.0126 52.6144 73.0427 53.4881 75.304C50.4558 75.1498 48.1945 75.0727 46.704 75.0727H44.3913C43.6718 75.0727 42.6953 75.1498 41.4619 75.304C40.434 75.4068 39.0206 75.561 37.2219 75.7665C35.4745 75.9721 33.2902 76.2548 30.6691 76.6145C31.9026 75.1241 32.8791 73.7622 33.5986 72.5287C34.3695 71.2439 34.9605 70.1646 35.3717 69.2909C35.8856 68.263 36.2454 67.3636 36.4509 66.5927C36.6051 65.7704 36.7079 64.3571 36.7593 62.3527C36.8107 60.297 36.8107 57.9842 36.7593 55.4145C36.7593 52.7934 36.7079 50.0438 36.6051 47.1658C36.5537 44.2877 36.4766 41.6152 36.3739 39.1483C36.2711 36.6814 36.1426 34.5743 35.9884 32.8269C35.8856 31.0795 35.8085 30.0002 35.7571 29.589C35.6029 28.9209 35.2946 28.2014 34.832 27.4305C34.4209 26.7624 33.8812 26.0172 33.2131 25.1949C32.545 24.3212 31.6199 23.3704 30.4378 22.3425ZM80.0074 22.0341C81.8061 22.2911 83.3737 22.4967 84.7099 22.6508C86.0462 22.805 87.1511 22.9335 88.0248 23.0363C89.0527 23.1391 89.9264 23.2162 90.6459 23.2676C91.4682 23.3704 92.4704 23.319 93.6525 23.1134C94.8859 22.9078 96.1965 22.7022 97.5841 22.4967C98.9717 22.2397 100.411 22.0341 101.901 21.8799C103.392 21.7258 104.831 21.7258 106.218 21.8799C107.143 21.9827 108.325 22.1883 109.764 22.4967C111.204 22.805 112.72 23.2933 114.313 23.9614C115.957 24.6295 117.602 25.5032 119.247 26.5825C120.891 27.6618 122.382 29.0237 123.718 30.6683C125.054 32.3129 126.159 34.2659 127.033 36.5272C127.907 38.7886 128.395 41.4354 128.498 44.4676C128.652 48.9903 128.241 53.1018 127.264 56.8022C126.288 60.5025 124.772 63.6633 122.716 66.2844C120.711 68.9054 118.167 70.9612 115.084 72.4516C112 73.9421 108.403 74.7644 104.291 74.9185C101.156 75.1755 98.0723 75.4068 95.0401 75.6124C93.7552 75.7152 92.3933 75.7922 90.9543 75.8436C89.5666 75.895 88.179 75.9464 86.7914 75.9978C85.4037 75.9978 84.0675 75.9721 82.7826 75.9207C81.4978 75.8693 80.3157 75.7922 79.2364 75.6895C80.4185 75.1241 81.3693 74.5588 82.0888 73.9935C82.8597 73.4281 83.4508 72.9399 83.8619 72.5287C84.3245 72.0148 84.6585 71.5522 84.8641 71.1411C84.9669 70.5758 85.1211 69.4708 85.3266 67.8262C85.4808 66.4385 85.6864 64.4599 85.9434 61.8902C86.2003 59.3205 86.5087 55.8257 86.8685 51.4058L87.331 45.9323C87.588 42.5403 87.6908 39.7651 87.6394 37.6065C87.6394 35.448 87.588 33.752 87.4852 32.5185C87.331 31.0795 87.1254 30.0259 86.8685 29.3578C86.6629 28.7924 86.2774 28.1243 85.7121 27.3534C85.1981 26.7367 84.4786 25.9915 83.5535 25.1178C82.6798 24.1927 81.4978 23.1648 80.0074 22.0341ZM96.2736 50.4036C96.3763 54.9777 96.6076 58.4982 96.9674 60.9651C97.3785 63.3806 97.8154 65.1794 98.2779 66.3614C98.8433 67.6977 99.46 68.4943 100.128 68.7513C101.105 68.7513 102.21 68.3401 103.443 67.5178C104.676 66.6441 105.884 65.3336 107.066 63.5862C108.3 61.8388 109.405 59.6545 110.381 57.0334C111.409 54.4123 112.154 51.3544 112.617 47.8596C113.079 44.3648 112.951 41.2812 112.231 38.6087C111.512 35.9362 110.561 33.7006 109.379 31.9018C108.197 30.0516 106.989 28.6639 105.756 27.7389C104.522 26.7624 103.597 26.2741 102.98 26.2741C102.261 26.2741 101.619 26.4797 101.053 26.8909C100.488 27.2506 99.6913 28.0986 98.6634 29.4349C98.1494 30.1544 97.6869 31.1823 97.2757 32.5185C96.916 33.7006 96.6076 35.2681 96.3506 37.221C96.0937 39.174 96.0166 41.6923 96.1194 44.776L96.2736 50.4036ZM140.215 24.8094C142.785 24.9636 144.944 25.0921 146.691 25.1949C148.49 25.2462 149.98 25.2976 151.162 25.349C152.499 25.4004 153.629 25.4004 154.554 25.349C155.479 25.2976 156.739 25.1692 158.332 24.9636C159.668 24.8094 161.441 24.5781 163.651 24.2698C165.912 23.91 168.713 23.4475 172.054 22.8821C170.872 24.0642 169.947 25.1435 169.279 26.1199C168.662 27.045 168.174 27.8416 167.814 28.5098C167.403 29.3321 167.12 30.0259 166.966 30.5912C166.863 31.1052 166.966 32.39 167.274 34.4458C167.583 36.5015 168.02 38.9427 168.585 41.7694C169.15 44.5447 169.767 47.5255 170.435 50.712C171.103 53.847 171.771 56.8022 172.439 59.5774C173.108 62.3013 173.699 64.6397 174.213 66.5927C174.778 68.4943 175.189 69.625 175.446 69.9847C176.217 71.064 176.705 71.7835 176.911 72.1433C177.116 72.4516 177.476 72.7343 177.99 72.9913C178.196 73.0941 178.53 73.2482 178.992 73.4538C179.403 73.6594 179.943 73.9164 180.611 74.2247C181.331 74.5331 182.23 74.8928 183.309 75.304C181.305 75.4068 179.583 75.4839 178.144 75.5353C176.705 75.5353 175.523 75.561 174.598 75.6124C173.519 75.6638 172.594 75.7152 171.823 75.7665C171.052 75.7665 170.127 75.8179 169.047 75.9207C168.122 76.0235 166.915 76.1263 165.424 76.2291C163.985 76.3319 162.289 76.4347 160.336 76.5375C161.364 75.8179 162.186 75.1755 162.803 74.6102C163.471 73.9935 163.985 73.4795 164.345 73.0684C164.756 72.5544 165.039 72.0919 165.193 71.6807C165.296 71.2182 165.373 70.5244 165.424 69.5993C165.476 68.777 165.476 67.6977 165.424 66.3614C165.373 64.9738 165.244 63.175 165.039 60.9651L144.764 63.0465C144.25 63.9202 143.864 64.6911 143.607 65.3593C143.35 65.976 143.171 66.5156 143.068 66.9782C142.914 67.5435 142.862 68.0061 142.914 68.3658C143.016 68.777 143.196 69.2652 143.453 69.8305C143.71 70.3445 144.07 70.9612 144.533 71.6807C145.046 72.3488 145.792 73.1455 146.768 74.0705C145.483 74.0191 144.173 73.9935 142.837 73.9935C141.5 73.9935 140.267 74.0191 139.136 74.0705C137.8 74.1219 136.489 74.1733 135.205 74.2247C133.92 74.2761 132.455 74.3532 130.81 74.456C129.423 74.5588 127.804 74.6873 125.954 74.8415C124.052 74.9442 122.022 75.0984 119.863 75.304C121.2 74.6873 122.33 74.0705 123.255 73.4538C124.18 72.7857 124.951 72.169 125.568 71.6036C126.288 70.9869 126.904 70.3959 127.418 69.8305C127.778 69.3166 128.498 68.1345 129.577 66.2844C130.656 64.3828 131.864 62.1471 133.2 59.5774C134.588 57.0077 136.027 54.2582 137.517 51.3287C139.059 48.3992 140.447 45.6497 141.68 43.08C142.914 40.4589 143.916 38.1975 144.687 36.296C145.458 34.3944 145.843 33.1609 145.843 32.5956C145.74 31.9275 145.483 31.1823 145.072 30.3599C144.712 29.6404 144.147 28.8181 143.376 27.893C142.657 26.9679 141.603 25.9401 140.215 24.8094ZM164.114 55.2603C163.805 53.4615 163.523 51.9197 163.266 50.6349C163.009 49.2986 162.803 48.1937 162.649 47.32C162.443 46.2921 162.289 45.3927 162.186 44.6218C162.032 43.9023 161.852 42.9772 161.647 41.8465C161.441 40.87 161.184 39.6623 160.876 38.2232C160.619 36.7328 160.285 34.9597 159.874 32.904C156.944 38.7629 154.657 43.3112 153.013 46.5491C151.419 49.7355 150.263 52.0739 149.543 53.5643C148.67 55.3117 148.181 56.3396 148.079 56.648L164.114 55.2603ZM176.911 22.2654C178.71 22.471 180.226 22.6252 181.459 22.7279C182.693 22.7793 183.669 22.8307 184.389 22.8821C185.262 22.9335 185.956 22.9592 186.47 22.9592C187.344 22.9592 188.346 22.9335 189.477 22.8821C190.453 22.8307 191.584 22.7536 192.869 22.6508C194.205 22.4967 195.644 22.2654 197.186 21.957C196.466 22.7279 195.875 23.4732 195.413 24.1927C194.95 24.8608 194.59 25.4775 194.333 26.0429C194.025 26.6596 193.768 27.2249 193.562 27.7389C193.357 28.407 193.126 29.4349 192.869 30.8225C192.612 32.0046 192.329 33.6749 192.021 35.8334C191.764 37.992 191.43 40.8186 191.018 44.3134C192.766 44.3648 194.282 44.3905 195.567 44.3905C196.852 44.3391 197.931 44.3134 198.805 44.3134H201.349C202.068 44.262 202.89 44.2106 203.815 44.1592C205.357 44.1078 207.696 43.9537 210.831 43.6967C211.088 41.3326 211.216 39.3025 211.216 37.6065C211.268 35.8591 211.242 34.3944 211.139 33.2123C211.036 31.8761 210.882 30.7454 210.677 29.8203C210.522 29.3064 210.291 28.6896 209.983 27.9701C209.726 27.3534 209.366 26.6082 208.903 25.7345C208.492 24.8094 207.927 23.7044 207.207 22.4196C208.544 22.6252 209.726 22.7793 210.754 22.8821C211.833 22.9335 212.732 22.9849 213.452 23.0363C214.274 23.0877 214.968 23.1134 215.533 23.1134C216.099 23.1134 216.844 23.0877 217.769 23.0363C218.54 22.9849 219.491 22.9592 220.621 22.9592C221.752 22.9078 223.14 22.8307 224.784 22.7279C224.373 23.4475 224.013 24.1927 223.705 24.9636C223.397 25.7345 223.14 26.4283 222.934 27.045C222.728 27.7646 222.523 28.4841 222.317 29.2036C222.06 30.2829 221.829 31.8504 221.624 33.9061C221.469 35.9619 221.315 38.2489 221.161 40.7672C221.058 43.2855 220.955 45.9066 220.853 48.6305C220.801 51.3544 220.75 53.9241 220.698 56.3396C220.698 58.7551 220.724 60.9137 220.776 62.8153C220.827 64.6654 220.93 65.976 221.084 66.7469C221.238 67.672 221.495 68.6228 221.855 69.5993C222.163 70.473 222.574 71.4238 223.088 72.4516C223.602 73.4281 224.27 74.3532 225.093 75.2269L206.514 76.6145C207.285 75.895 207.901 75.2012 208.364 74.5331C208.826 73.8136 209.186 73.1968 209.443 72.6829C209.7 72.1176 209.88 71.5779 209.983 71.064C210.034 70.4473 210.111 69.368 210.214 67.8262C210.317 66.5413 210.42 64.7168 210.522 62.3527C210.625 59.9886 210.728 56.8536 210.831 52.9476C210.111 52.9476 209.238 52.9733 208.21 53.0247C207.233 53.0247 206.308 53.0504 205.434 53.1018C204.407 53.1532 203.327 53.1789 202.197 53.1789C201.066 53.2303 199.884 53.2817 198.65 53.3331C197.623 53.4359 196.466 53.5386 195.181 53.6414C193.948 53.6928 192.714 53.7699 191.481 53.8727C191.378 56.0312 191.378 57.9328 191.481 59.5774C191.584 61.1706 191.738 62.5326 191.943 63.6633C192.149 64.9995 192.406 66.1559 192.714 67.1324C193.023 68.0574 193.357 68.9825 193.717 69.9076C194.025 70.7299 194.385 71.6036 194.796 72.5287C195.258 73.4538 195.721 74.2761 196.183 74.9956C195.207 74.8928 194.308 74.8158 193.485 74.7644C192.663 74.6616 191.943 74.5588 191.327 74.456C190.607 74.4046 189.913 74.3532 189.245 74.3018C188.577 74.3018 187.781 74.2761 186.855 74.2247C186.033 74.1733 185.005 74.1476 183.772 74.1476C182.538 74.0962 181.099 74.0705 179.455 74.0705C180.431 73.0941 181.202 72.1433 181.767 71.2182C182.384 70.2417 182.821 69.368 183.078 68.5971C183.386 67.672 183.592 66.824 183.695 66.0531C183.746 65.385 183.772 64.1258 183.772 62.2756C183.823 60.4254 183.823 58.3183 183.772 55.9542C183.772 53.5386 183.746 51.0203 183.695 48.3992C183.643 45.7268 183.566 43.2341 183.463 40.9214C183.412 38.6087 183.335 36.63 183.232 34.9854C183.181 33.2894 183.129 32.2358 183.078 31.8247C182.821 30.8996 182.436 29.8974 181.922 28.8181C181.459 27.9444 180.842 26.9422 180.071 25.8116C179.301 24.6295 178.247 23.4475 176.911 22.2654Z" fill="black"/>
</svg>
